<svg height="512pt" viewBox="0 0 512 512" width="512pt" xmlns="http://www.w3.org/2000/svg"><g fill="#ffd400"><path d="m58.425781 73.425781c-3.839843 0-7.675781-1.464843-10.605469-4.394531l-43.425781-43.425781c-5.859375-5.855469-5.859375-15.355469 0-21.210938 5.855469-5.859375 15.355469-5.859375 21.210938 0l43.425781 43.425781c5.859375 5.855469 5.859375 15.355469 0 21.210938-2.925781 2.929688-6.765625 4.394531-10.605469 4.394531zm0 0"/><path d="m186 201c-3.839844 0-7.679688-1.464844-10.605469-4.394531l-42.722656-42.722657c-5.855469-5.855468-5.855469-15.351562 0-21.210937 5.859375-5.859375 15.355469-5.859375 21.214844 0l42.71875 42.71875c5.859375 5.859375 5.859375 15.355469 0 21.214844-2.929688 2.929687-6.765625 4.394531-10.605469 4.394531zm0 0"/><path d="m453.574219 73.425781c-3.839844 0-7.679688-1.464843-10.609375-4.394531-5.855469-5.855469-5.855469-15.355469 0-21.210938l43.429687-43.425781c5.855469-5.859375 15.355469-5.859375 21.210938 0 5.859375 5.855469 5.859375 15.355469 0 21.210938l-43.425781 43.425781c-2.929688 2.929688-6.769532 4.394531-10.605469 4.394531zm0 0"/><path d="m326 201c-3.839844 0-7.679688-1.464844-10.605469-4.394531-5.859375-5.859375-5.859375-15.355469 0-21.214844l42.71875-42.71875c5.859375-5.859375 15.355469-5.859375 21.214844 0 5.855469 5.859375 5.855469 15.355469 0 21.210937l-42.722656 42.722657c-2.929688 2.929687-6.765625 4.394531-10.605469 4.394531zm0 0"/><path d="m15 512c-3.839844 0-7.679688-1.464844-10.605469-4.394531-5.859375-5.859375-5.859375-15.355469 0-21.214844l43.425781-43.425781c5.859376-5.855469 15.355469-5.855469 21.214844 0 5.855469 5.859375 5.855469 15.355468 0 21.214844l-43.429687 43.425781c-2.929688 2.929687-6.769531 4.394531-10.605469 4.394531zm0 0"/><path d="m143.28125 383.71875c-3.839844 0-7.679688-1.460938-10.609375-4.390625-5.855469-5.859375-5.855469-15.355469 0-21.214844l42.722656-42.722656c5.855469-5.855469 15.355469-5.855469 21.214844 0 5.855469 5.859375 5.855469 15.355469 0 21.214844l-42.722656 42.722656c-2.929688 2.929687-6.769531 4.390625-10.605469 4.390625zm0 0"/><path d="m497 512c-3.839844 0-7.679688-1.464844-10.605469-4.394531l-43.429687-43.425781c-5.855469-5.855469-5.855469-15.355469 0-21.214844 5.859375-5.855469 15.355468-5.855469 21.214844 0l43.425781 43.425781c5.859375 5.859375 5.859375 15.355469 0 21.214844-2.929688 2.929687-6.765625 4.394531-10.605469 4.394531zm0 0"/><path d="m368.71875 383.71875c-3.835938 0-7.675781-1.460938-10.605469-4.390625l-42.71875-42.722656c-5.859375-5.859375-5.859375-15.355469 0-21.214844 5.855469-5.855469 15.355469-5.855469 21.210938 0l42.722656 42.722656c5.855469 5.859375 5.855469 15.355469 0 21.214844-2.929687 2.929687-6.769531 4.390625-10.609375 4.390625zm0 0"/></g><path d="m360.992188 195.726562c-.003907-.144531-.007813-.289062-.015626-.433593-.019531-.394531-.046874-.785157-.097656-1.171875-.003906-.046875-.011718-.09375-.019531-.144532-.054687-.394531-.125-.785156-.210937-1.171874-.023438-.105469-.046876-.207032-.070313-.308594-.101563-.417969-.210937-.828125-.347656-1.230469-.003907-.015625-.011719-.03125-.015625-.046875-.132813-.386719-.28125-.769531-.445313-1.144531-.042969-.097657-.082031-.195313-.128906-.292969-.171875-.375-.351563-.75-.554687-1.109375-.039063-.066406-.078126-.128906-.117188-.191406-.171875-.300781-.355469-.59375-.550781-.882813-.078125-.113281-.152344-.222656-.234375-.335937-.226563-.316407-.464844-.628907-.71875-.925781-.082032-.097657-.167969-.191407-.253906-.285157-.199219-.230469-.410157-.453125-.628907-.667969-.101562-.101562-.203125-.207031-.308593-.304687-.289063-.269531-.589844-.53125-.898438-.78125-.097656-.078125-.199219-.152344-.300781-.226563-.277344-.210937-.5625-.414062-.859375-.609374-.082032-.054688-.160156-.109376-.246094-.164063-.027344-.015625-.054688-.035156-.085938-.054687-.347656-.214844-.703124-.410157-1.0625-.59375-.039062-.019532-.074218-.042969-.113281-.0625l-90-45c-4.222656-2.109376-9.195312-2.109376-13.417969 0l-90 45c-.035156.019531-.070312.042968-.109374.0625-.359376.183593-.71875.378906-1.066407.59375-.03125.019531-.058593.039062-.085937.058593-.082032.050781-.164063.109375-.246094.160157-.292969.195312-.582031.398437-.859375.609374-.101563.078126-.203125.148438-.296875.226563-.3125.25-.613281.511719-.902344.78125-.105468.101563-.207031.203125-.308594.304687-.21875.21875-.425781.441407-.628906.667969-.085937.09375-.171875.1875-.253906.285157-.253906.300781-.492188.609374-.71875.929687-.078125.109375-.15625.222656-.230469.332031-.195312.289063-.382812.582032-.554687.882813-.039063.0625-.078125.125-.113282.191406-.203124.359375-.386718.734375-.558593 1.109375-.046875.097656-.085938.195312-.128907.292969-.160156.375-.3125.757812-.445312 1.148437-.003906.015625-.007812.027344-.015625.042969-.132813.402344-.246094.816406-.34375 1.230469-.027344.101562-.050781.207031-.074219.308594-.082031.390624-.15625.78125-.210937 1.175781-.003907.046875-.011719.09375-.019531.140625-.046876.386718-.078126.78125-.097657 1.171875-.007812.148437-.011719.289062-.011719.433593 0 .09375-.007812.183594-.007812.273438v120c0 5.679688 3.210938 10.875 8.292969 13.417969l90 45c.085937.042969.175781.070312.265625.113281.363281.171875.730468.332031 1.109375.476562.152343.058594.300781.113282.453125.164063.375.132813.757812.242187 1.148437.34375.152344.039063.300781.082031.449219.113281.40625.089844.820312.160156 1.234375.214844.132813.019531.265625.046875.398437.0625.542969.058594 1.089844.09375 1.648438.09375.554688 0 1.105469-.035156 1.648438-.09375.132812-.015625.265624-.042969.398437-.0625.414063-.054688.828125-.125 1.230469-.214844.152344-.03125.300781-.074218.453125-.113281.386719-.101563.769531-.210937 1.148437-.34375.152344-.050781.300782-.105469.453125-.164063.378907-.144531.746094-.304687 1.109375-.476562.089844-.042969.179688-.070312.265625-.113281l90-45c5.082031-2.542969 8.292969-7.738281 8.292969-13.417969v-120c0-.089844-.007812-.179688-.007812-.273438zm-104.992188-27.957031 56.457031 28.230469-56.457031 28.230469-56.460938-28.230469zm-75 52.5 60 30v86.460938l-60-30zm150 86.460938-60 30v-86.460938l60-30zm0 0" fill="#979fef"/><path d="m122.066406 167.042969c-11.523437 0-23.046875-4.382813-31.820312-13.15625l-42.425782-42.425781c-17.546874-17.546876-17.546874-46.09375 0-63.640626 17.546876-17.546874 46.09375-17.546874 63.640626 0l42.425781 42.425782c8.5 8.5 13.179687 19.800781 13.179687 31.820312 0 12.019532-4.679687 23.320313-13.179687 31.820313-8.773438 8.773437-20.296875 13.15625-31.820313 13.15625zm-42.425781-102.394531c-3.84375 0-7.683594 1.460937-10.605469 4.382812-5.851562 5.851562-5.851562 15.367188 0 21.214844l42.425782 42.425781c5.847656 5.851563 15.363281 5.847656 21.210937 0 2.835937-2.832031 4.394531-6.597656 4.394531-10.605469 0-4.007812-1.558594-7.773437-4.394531-10.605468l-42.425781-42.429688c-2.925782-2.921875-6.765625-4.382812-10.605469-4.382812zm0 0" fill="#fdbf00"/><path d="m389.933594 167.042969c-11.523438 0-23.046875-4.382813-31.820313-13.15625-8.5-8.5-13.179687-19.800781-13.179687-31.820313 0-12.019531 4.679687-23.320312 13.179687-31.820312l42.429688-42.425782c17.542969-17.546874 46.09375-17.546874 63.636719 0 8.5 8.5 13.183593 19.800782 13.183593 31.820313s-4.683593 23.320313-13.183593 31.820313l-42.425782 42.425781c-8.773437 8.773437-20.296875 13.15625-31.820312 13.15625zm42.425781-102.394531c-3.839844 0-7.679687 1.460937-10.605469 4.382812l-42.425781 42.429688c-2.832031 2.832031-4.394531 6.597656-4.394531 10.605468 0 4.007813 1.5625 7.773438 4.394531 10.605469 5.851563 5.851563 15.367187 5.851563 21.214844 0l42.425781-42.425781c2.832031-2.832032 4.394531-6.601563 4.394531-10.605469 0-4.007813-1.5625-7.773437-4.394531-10.609375-2.925781-2.921875-6.769531-4.382812-10.609375-4.382812zm0 0" fill="#fdbf00"/><path d="m79.640625 477.339844c-11.523437 0-23.046875-4.386719-31.820313-13.160156-8.5-8.5-13.179687-19.800782-13.179687-31.820313s4.679687-23.320313 13.179687-31.820313l42.425782-42.425781c17.542968-17.542969 46.09375-17.546875 63.640625 0 8.5 8.5 13.179687 19.800781 13.179687 31.820313 0 12.019531-4.679687 23.320312-13.179687 31.820312l-42.425781 42.425782c-8.773438 8.773437-20.296876 13.160156-31.820313 13.160156zm42.425781-102.398438c-3.84375 0-7.683594 1.460938-10.605468 4.386719l-42.425782 42.425781c-2.835937 2.832032-4.394531 6.597656-4.394531 10.605469s1.558594 7.773437 4.394531 10.605469c5.847656 5.851562 15.363282 5.851562 21.210938 0l42.425781-42.425782c2.835937-2.832031 4.394531-6.597656 4.394531-10.605468 0-4.007813-1.558594-7.773438-4.394531-10.605469-2.925781-2.925781-6.765625-4.386719-10.605469-4.386719zm0 0" fill="#fdbf00"/><path d="m432.359375 477.339844c-11.523437 0-23.046875-4.386719-31.816406-13.160156l-42.429688-42.425782c-8.5-8.5-13.179687-19.800781-13.179687-31.820312 0-12.019532 4.679687-23.320313 13.179687-31.820313 17.546875-17.542969 46.09375-17.546875 63.640625 0l42.425782 42.425781c17.546874 17.546876 17.546874 46.09375 0 63.640626-8.773438 8.773437-20.296876 13.160156-31.820313 13.160156zm-42.425781-102.398438c-3.839844 0-7.683594 1.460938-10.605469 4.386719-2.832031 2.832031-4.394531 6.597656-4.394531 10.605469 0 4.007812 1.5625 7.773437 4.394531 10.605468l42.425781 42.425782c5.851563 5.851562 15.367188 5.851562 21.214844 0 5.847656-5.847656 5.847656-15.363282 0-21.210938l-42.425781-42.425781c-2.925781-2.925781-6.769531-4.386719-10.609375-4.386719zm0 0" fill="#fdbf00"/></svg>