<svg id="Layer_1" data-name="Layer 1" xmlns="http://www.w3.org/2000/svg" viewBox="0 0 521.681 594.272"><defs><style>.cls-1,.cls-11,.cls-3,.cls-4,.cls-5,.cls-7,.cls-9{fill:none;stroke-miterlimit:10;}.cls-1{stroke:#000;stroke-width:9.458px;}.cls-2{fill:#43464d;}.cls-3,.cls-5{stroke:#d3dcf2;}.cls-3{stroke-width:74.954px;}.cls-4,.cls-7{stroke:#7690cf;}.cls-4{stroke-width:48.932px;}.cls-5{stroke-width:75.507px;}.cls-6{fill:#d3dcf2;}.cls-7{stroke-width:48.97px;}.cls-8{fill:#7690cf;}.cls-11,.cls-9{stroke:#48577d;}.cls-9{stroke-width:27.983px;}.cls-10{fill:#48577d;}.cls-11{stroke-width:23.985px;}.cls-12{fill:#fff;}</style></defs><title>DataChain v1 (Colour-light-blue)</title><path class="cls-1" d="M974.5,299" transform="translate(-699.319 -205.728)"/><path class="cls-2" d="M961.1,237.935l231.889,128.277-.469,264.616-233.3,136.965L727.331,639.516,727.8,374.9,961.1,237.935m-.412-32.207L699.846,358.863,699.319,656,959.633,800l260.84-153.135L1221,349.729l-260.313-144Z" transform="translate(-699.319 -205.728)"/><line class="cls-3" x1="211.832" y1="470.344" x2="215.701" y2="125.482"/><line class="cls-3" x1="211.073" y1="133.821" x2="70.35" y2="214.651"/><line class="cls-3" x1="206.902" y1="461.699" x2="68.401" y2="385.899"/><line class="cls-3" x1="73.357" y1="394.65" x2="75.473" y2="206.088"/><line class="cls-4" x1="230.629" y1="511.235" x2="230.059" y2="89.107"/><line class="cls-4" x1="224.527" y1="99.153" x2="53.659" y2="193.12"/><line class="cls-4" x1="224.466" y1="500.475" x2="53.908" y2="402.735"/><line class="cls-4" x1="60.105" y1="413.627" x2="59.793" y2="182.817"/><line class="cls-5" x1="319.661" y1="455.838" x2="324.577" y2="126.188"/><line class="cls-5" x1="461.46" y1="209.668" x2="330.099" y2="133.522"/><line class="cls-5" x1="458.197" y1="373.111" x2="323.902" y2="447.723"/><rect class="cls-6" x="1146.354" y="538.896" width="34.739" height="48.777" transform="translate(-100.944 1520.279) rotate(-89.898)"/><rect class="cls-6" x="1146.546" y="407.445" width="35.11" height="46" transform="translate(32.273 1388.053) rotate(-89.898)"/><line class="cls-7" x1="295.132" y1="505.479" x2="297.794" y2="82.465"/><line class="cls-7" x1="474.369" y1="186.176" x2="304.961" y2="91.738"/><line class="cls-7" x1="471.99" y1="395.931" x2="300.483" y2="494.964"/><rect class="cls-8" x="1161.048" y="578.111" width="24.349" height="29.558" transform="translate(-121.066 1559.332) rotate(-89.898)"/><rect class="cls-8" x="1161.772" y="387.448" width="24.609" height="26.437" transform="translate(56.628 1362.91) rotate(-89.146)"/><line class="cls-9" x1="243.164" y1="537.274" x2="243.164" y2="56.943"/><line class="cls-9" x1="236.849" y1="68.609" x2="42.133" y2="182.768"/><line class="cls-9" x1="236.163" y1="525.291" x2="42.095" y2="421.286"/><line class="cls-9" x1="49.134" y1="433.419" x2="49.134" y2="170.785"/><rect class="cls-10" x="930.86" y="255.49" width="23.833" height="13.92" transform="matrix(0.866, -0.5, 0.5, 0.866, -704.236, 300.822)"/><rect class="cls-10" x="929.239" y="735.56" width="25.499" height="14.034" transform="translate(-226.234 -567.186) rotate(28.739)"/><line class="cls-9" x1="281.17" y1="537.274" x2="281.17" y2="56.943"/><line class="cls-11" x1="482.404" y1="173.266" x2="289.374" y2="67.413"/><line class="cls-9" x1="481.201" y1="411.45" x2="287.171" y2="525.291"/><rect class="cls-10" x="1171.528" y="373.035" width="20.453" height="11.509" transform="translate(101.551 1354.143) rotate(-89.898)"/><rect class="cls-10" x="1168.326" y="609.674" width="24.35" height="14.998" transform="translate(-138.085 1590.849) rotate(-89.898)"/><rect class="cls-10" x="968.043" y="256.085" width="25.369" height="13.465" transform="translate(-452.142 -644.911) rotate(28.739)"/><rect class="cls-10" x="968.198" y="735.269" width="26.039" height="13.834" transform="translate(-938.954 384.315) rotate(-30)"/><path class="cls-12" d="M995.5,742.179l-.4.145-.19.07-.358.151a.727.727,0,0,0-.161.122.71.71,0,0,0-.158.124l-.235.3a1.582,1.582,0,0,0-.209.81l.053-.4a.079.079,0,0,1-.008.026l.151-.358a.138.138,0,0,1-.014.024l.234-.3a.294.294,0,0,1-.031.03l.3-.235a2.587,2.587,0,0,1-.311.168l2.2,1.694a.246.246,0,0,1,.009-.039l-.151.358a.233.233,0,0,1,.02-.034l-.235.3a.234.234,0,0,1,.038-.039l-.3.235a.308.308,0,0,1,.06-.036l-.358.151a.418.418,0,0,1,.06-.019l.034-.01.358-.151a.066.066,0,0,0,.019-.009c.034-.018.286-.215.314-.243l.012-.013.234-.3c.012-.017.023-.034.035-.05l-.235.3a.08.08,0,0,1,.017-.015l-.3.235.01,0-.359.151.011,0a1.5,1.5,0,0,0,.662-.385,1.67,1.67,0,0,0,.439-1.061,1.49,1.49,0,0,0-.2-.757,1.264,1.264,0,0,0-.391-.428.755.755,0,0,0-.331-.193c-.061-.027-.122-.052-.183-.077a1.164,1.164,0,0,0-.41-.054l-.4.054-.188.079a.8.8,0,0,0-.339.2.541.541,0,0,0-.159.125l-.234.3,0,.009-.151.358a.34.34,0,0,1-.012.034l.151-.358,0,.009.234-.3-.007.007.661-.386-.009,0,1.845,1.048a.822.822,0,0,0-.079-.189.442.442,0,0,0-.081-.188l-.235-.3c-.1-.084-.2-.163-.308-.238a1.523,1.523,0,0,0-.372-.157,1.549,1.549,0,0,0-.808,0l-.359.151a.509.509,0,0,0-.161.122.642.642,0,0,0-.159.124l-.234.3c-.029.062-.056.125-.08.189a1.124,1.124,0,0,0-.129.578,1.7,1.7,0,0,0,.055.419l.151.358a1.134,1.134,0,0,0,.386.421.755.755,0,0,0,.331.193,1.126,1.126,0,0,0,.578.129,1.027,1.027,0,0,0,.415-.053c.044-.015.327-.131.368-.155l.014-.008.3-.235a1.181,1.181,0,0,0,.246-.316c.032-.061.061-.143.083-.194a.533.533,0,0,0,.077-.19l.054-.4V743.9l-.054-.4a.675.675,0,0,0-.078-.189.793.793,0,0,0-.081-.189l-1.295,2.257.056,0a1.664,1.664,0,0,0,1.06-.439,1.114,1.114,0,0,0,.31-.483,1.137,1.137,0,0,0,.13-.578l-.054-.4a1.492,1.492,0,0,0-.386-.661l-.3-.235a1.494,1.494,0,0,0-.757-.2l-.056,0a1.5,1.5,0,0,0-1.3.743,1.514,1.514,0,0,0,0,1.514l0,.01-.151-.359,0,.011-.054-.4v.011l.054-.4,0,.01.152-.358a.078.078,0,0,1-.011.02l.235-.3-.008.008.3-.234a.069.069,0,0,1-.019.01l.359-.151-.011,0,.4-.054h-.011l1.446,1.1,0-.01.053.4,0-.01-.205.757,0-.01-.234.3.007-.008-.3.235.01,0-.758.205h.011l-.4-.053.01,0-.358-.151.008.006-.538-.538.006.008-.151-.358,0,.01a1.671,1.671,0,0,0,.689.9l.359.151a1.5,1.5,0,0,0,.8,0,1.251,1.251,0,0,0,.52-.271,1.075,1.075,0,0,0,.394-.428,3.714,3.714,0,0,0,.157-.367l.012-.034-.151.358,0-.008-.234.3.006-.008-.3.235.008-.006-.358.151.008,0-.4.054h.008l-.4-.053.007,0-.9-.689,0,.007.9-2.2a.641.641,0,0,0-.19.078,1.428,1.428,0,0,0-.189.08,1.193,1.193,0,0,0-.32.25l-.234.3-.014.019-.021.031.234-.3a.085.085,0,0,1-.016.017l.3-.234-.025.013.358-.152a1.851,1.851,0,0,0-.512.216c.1-.066-.238.166-.324.253l-.017.02-.235.3a1.151,1.151,0,0,0-.18.431l-.053.4.053.4.151.358a1.136,1.136,0,0,0,.387.421.75.75,0,0,0,.331.193.74.74,0,0,0,.378.1.751.751,0,0,0,.4,0,1.115,1.115,0,0,0,.558-.178c.09-.047.183-.092.271-.142l.027-.016.013-.009.3-.235.021-.019.009-.011.235-.3a1.612,1.612,0,0,0,.173-.4c.012-.038.055-.372.055-.412v-.034l-.053.4,0-.012-.386.662.007-.007-.3.234.009,0-.358.151c.193-.076.392-.143.587-.214a1.687,1.687,0,0,0,.9-.69,1.121,1.121,0,0,0,.178-.557,1.147,1.147,0,0,0-.027-.6l-.151-.359a1.524,1.524,0,0,0-.538-.538l-.359-.151a1.518,1.518,0,0,0-.8,0Z" transform="translate(-699.319 -205.728)"/><path class="cls-12" d="M995.884,744.516l.007-.112a1.137,1.137,0,0,0-.13-.578,1.114,1.114,0,0,0-.31-.483l-.3-.234a1.494,1.494,0,0,0-.757-.205.2.2,0,0,1-.049,0l.4.053-.015,0,.662.385-.008-.006.234.3-.006-.009.151.359,0-.01.053.4v-.01l-.053.4,0-.01-.152.358.006-.008-.538.538.01-.006-.358.152.012,0-.4.054h.039l.4-.053.014,0a1.387,1.387,0,0,0,.415-.177c.152-.1.276-.216.415-.326l-.3.235a2.659,2.659,0,0,1,.376-.2l.4-.2a1.445,1.445,0,0,0,.716-1.494,1.121,1.121,0,0,0-.178-.558l-.235-.3a1.494,1.494,0,0,0-.662-.385l-.4-.054a1.488,1.488,0,0,0-.757.205l-.481.242c-.074.037-.149.072-.221.112a3.836,3.836,0,0,0-.472.362l.3-.235a.248.248,0,0,1-.049.03l.359-.151a.191.191,0,0,1-.041.011l.4-.054a1.6,1.6,0,0,0-.818.214,1.134,1.134,0,0,0-.421.386c-.043.052-.084.106-.123.16a1.519,1.519,0,0,0-.206.772,1.546,1.546,0,0,0,1.135,1.483,2.509,2.509,0,0,0,.448.054l-1.5-1.5-.007.112a1.541,1.541,0,0,0,1.5,1.5l.4-.053a1.49,1.49,0,0,0,.662-.386l.235-.3a1.5,1.5,0,0,0,.205-.758Z" transform="translate(-699.319 -205.728)"/></svg>