<?xml version="1.0" encoding="utf-8"?>
<!-- Generator: Adobe Illustrator 24.0.0, SVG Export Plug-In . SVG Version: 6.00 Build 0)  -->
<svg version="1.1" id="Layer_1" xmlns="http://www.w3.org/2000/svg" xmlns:xlink="http://www.w3.org/1999/xlink" x="0px" y="0px"
	 viewBox="0 0 416 416" style="enable-background:new 0 0 416 416;" xml:space="preserve">
<style type="text/css">
	.st0{fill:none;stroke:#FFFFFF;stroke-width:25;stroke-miterlimit:10;}
	.st1{fill:none;stroke:#FFFFFF;stroke-width:20;stroke-miterlimit:10;}
</style>
<path d="M208.5,67.1c-31.7,0-57.3,25.7-57.3,57.3c0,31.6,25.7,57.3,57.3,57.3c31.7,0,57.3-25.7,57.3-57.3
	C265.7,92.8,240.1,67.2,208.5,67.1z"/>
<path d="M208,232.5c-68,0.1-123.2,55.2-123.2,123.2v19.7c73.3,54.1,173.2,54.1,246.5,0v-19.7C331.2,287.7,276,232.5,208,232.5z"/>
<path d="M208,0C93.3,0,0,93.3,0,208c0,57,23.4,111.5,64.8,150.7v-3c0-79,64.3-143.2,143.2-143.2s143.2,64.3,143.2,143.2v3
	C392.6,319.5,416,265,416,208C416,93.3,322.7,0,208,0z M208.5,201.8c-42.7,0-77.3-34.6-77.3-77.3c0-42.7,34.6-77.3,77.3-77.3
	c42.7,0,77.3,34.6,77.3,77.3C285.7,167.1,251.1,201.7,208.5,201.8z"/>
<line class="st0" x1="322.1" y1="307.9" x2="322.1" y2="307.9"/>
<line class="st1" x1="336" y1="309.8" x2="80.9" y2="309.9"/>
</svg>
